<svg xmlns="http://www.w3.org/2000/svg">
  <svg viewBox="0 0 24 24">
    <g id="src-1">
      <path
        d="M8 6a1 1 0 1 0-1-1a1 1 0 0 0 1 1zm13 13h-6.18A3 3 0 0 0 13 17.18V15h4a3 3 0 0 0 3-3v-2a3 3 0 0 0-.78-2A3 3 0 0 0 20 6V4a3 3 0 0 0-3-3H7a3 3 0 0 0-3 3v2a3 3 0 0 0 .78 2A3 3 0 0 0 4 10v2a3 3 0 0 0 3 3h4v2.18A3 3 0 0 0 9.18 19H3a1 1 0 0 0 0 2h6.18a3 3 0 0 0 5.64 0H21a1 1 0 0 0 0-2zM6 4a1 1 0 0 1 1-1h10a1 1 0 0 1 1 1v2a1 1 0 0 1-1 1H7a1 1 0 0 1-1-1zm1 9a1 1 0 0 1-1-1v-2a1 1 0 0 1 1-1h10a1 1 0 0 1 1 1v2a1 1 0 0 1-1 1zm5 8a1 1 0 1 1 1-1a1 1 0 0 1-1 1zM8 10a1 1 0 1 0 1 1a1 1 0 0 0-1-1z"
        fill="white"/>
    </g>
  </svg>
  <svg viewBox="0 0 16 16">
    <g id="src-2" class="icon">
      <g fill="none">
        <path
          d="M8.496 8a1.5 1.5 0 0 1 1.5 1.5l-.001.748c.103 1.837-1.312 2.753-3.935 2.753C3.446 13 2 12.097 2 10.275V9.5A1.5 1.5 0 0 1 3.5 8h4.996zm4 0a1.5 1.5 0 0 1 1.5 1.5v.527c.09 1.647-1.16 2.473-3.444 2.473c-.31 0-.602-.015-.874-.045c.29-.268.507-.587.645-.958l.229.003c1.784 0 2.497-.471 2.444-1.446V9.5a.5.5 0 0 0-.5-.5h-2.063a2 2 0 0 0-.615-1h2.678zm-4 1H3.5a.5.5 0 0 0-.5.5v.775C3 11.42 3.928 12 6.06 12c2.124 0 3-.567 2.936-1.725V9.5a.5.5 0 0 0-.5-.5zM6 2a2.5 2.5 0 1 1 0 5a2.5 2.5 0 0 1 0-5zm5 1a2 2 0 1 1 0 4a2 2 0 0 1 0-4zM6 3a1.5 1.5 0 1 0 0 3a1.5 1.5 0 0 0 0-3zm5 1a1 1 0 1 0 0 2a1 1 0 0 0 0-2z"
          fill="white"/>
      </g>
    </g>
  </svg>
  <svg viewBox="0 0 24 24">
    <g id="src-3" class="icon">
      <g fill="none">
        <path d="M21 21l-4.486-4.494M19 10.5a8.5 8.5 0 1 1-17 0a8.5 8.5 0 0 1 17 0z" stroke="#fff" stroke-width="2"
              stroke-linecap="round"/>
      </g>
    </g>
  </svg>
  <svg viewBox="0 0 16 16">
    <g id="src-4" class="icon">
      <g fill="none">
        <path d="M8 6a2 2 0 1 0 0 4a2 2 0 0 0 0-4zM7 8a1 1 0 1 1 2 0a1 1 0 0 1-2 0z" fill="white"/>
        <path
          d="M10.618 4.398a.708.708 0 0 1-.824-.567l-.26-1.416a.354.354 0 0 0-.275-.282a6.072 6.072 0 0 0-2.519 0a.354.354 0 0 0-.275.282l-.259 1.416a.71.71 0 0 1-.936.538l-1.359-.484a.355.355 0 0 0-.382.095c-.569.627-1 1.367-1.262 2.173a.352.352 0 0 0 .108.378l1.102.931a.704.704 0 0 1 0 1.076l-1.102.931a.352.352 0 0 0-.108.378A5.986 5.986 0 0 0 3.53 12.02a.355.355 0 0 0 .382.095l1.36-.484a.708.708 0 0 1 .936.538l.258 1.416c.026.14.135.252.275.281a6.075 6.075 0 0 0 2.52 0a.353.353 0 0 0 .274-.281l.26-1.416a.71.71 0 0 1 .936-.538l1.359.484c.135.048.286.01.382-.095c.569-.627 1-1.367 1.262-2.173a.352.352 0 0 0-.108-.378l-1.102-.931a.703.703 0 0 1 0-1.076l1.102-.931a.352.352 0 0 0 .108-.378A5.985 5.985 0 0 0 12.47 3.98a.355.355 0 0 0-.382-.095l-1.36.484a.71.71 0 0 1-.111.03zm-6.62.58l.937.333a1.71 1.71 0 0 0 2.255-1.3l.177-.97a5.105 5.105 0 0 1 1.265 0l.178.97a1.708 1.708 0 0 0 2.255 1.3L12 4.977c.255.334.467.698.63 1.084l-.754.637a1.704 1.704 0 0 0 0 2.604l.755.637a4.99 4.99 0 0 1-.63 1.084l-.937-.334a1.71 1.71 0 0 0-2.255 1.3l-.178.97a5.099 5.099 0 0 1-1.265 0l-.177-.97a1.708 1.708 0 0 0-2.255-1.3L4 11.023a4.987 4.987 0 0 1-.63-1.084l.754-.638a1.704 1.704 0 0 0 0-2.603l-.755-.637c.164-.386.376-.75.63-1.084z"
          fill="white"/>
      </g>
    </g>
  </svg>
  <svg viewBox="0 0 32 32">
    <g id="src-5" class="icon">
      <path d="M16 4a5 5 0 1 1-5 5a5 5 0 0 1 5-5m0-2a7 7 0 1 0 7 7a7 7 0 0 0-7-7z" fill="#fff"/>
      <path d="M26 30h-2v-5a5 5 0 0 0-5-5h-6a5 5 0 0 0-5 5v5H6v-5a7 7 0 0 1 7-7h6a7 7 0 0 1 7 7z" fill="#fff"/>
    </g>
  </svg>
  <svg viewBox="0 0 24 24">
    <g id="src-6">
      <path
        d="M12.3 12.22A4.92 4.92 0 0 0 14 8.5a5 5 0 0 0-10 0a4.92 4.92 0 0 0 1.7 3.72A8 8 0 0 0 1 19.5a1 1 0 0 0 2 0a6 6 0 0 1 12 0a1 1 0 0 0 2 0a8 8 0 0 0-4.7-7.28zM9 11.5a3 3 0 1 1 3-3a3 3 0 0 1-3 3zm9.74.32A5 5 0 0 0 15 3.5a1 1 0 0 0 0 2a3 3 0 0 1 3 3a3 3 0 0 1-1.5 2.59a1 1 0 0 0-.5.84a1 1 0 0 0 .45.86l.39.26l.13.07a7 7 0 0 1 4 6.38a1 1 0 0 0 2 0a9 9 0 0 0-4.23-7.68z"
        fill="white"/>
    </g>
  </svg>
  <svg viewBox="0 0 24 24">
    <g id="src-7">
      <path
        d="M13.3 12.22A4.92 4.92 0 0 0 15 8.5a5 5 0 0 0-10 0a4.92 4.92 0 0 0 1.7 3.72A8 8 0 0 0 2 19.5a1 1 0 0 0 2 0a6 6 0 0 1 12 0a1 1 0 0 0 2 0a8 8 0 0 0-4.7-7.28zM10 11.5a3 3 0 1 1 3-3a3 3 0 0 1-3 3zm11.71-2.37a1 1 0 0 0-1.42 0l-2 2l-.62-.63a1 1 0 0 0-1.42 0a1 1 0 0 0 0 1.41l1.34 1.34a1 1 0 0 0 1.41 0l2.67-2.67a1 1 0 0 0 .04-1.45z"
        fill="currentColor"/>
    </g>
  </svg>
  <svg viewBox="0 0 24 24">
    <g id="src-8">
      <path
        d="M14.55 12.22a4.92 4.92 0 0 0 1.7-3.72a5 5 0 0 0-10 0A4.92 4.92 0 0 0 8 12.22a8 8 0 0 0-4.7 7.28a1 1 0 0 0 2 0a6 6 0 0 1 12 0a1 1 0 0 0 2 0a8 8 0 0 0-4.75-7.28zm-3.3-.72a3 3 0 1 1 3-3a3 3 0 0 1-3 3zm8.5-5a1 1 0 0 0-1 1v2a1 1 0 0 0 2 0v-2a1 1 0 0 0-1-1zM19 11.79a1.05 1.05 0 0 0-.29.71a1 1 0 0 0 .29.71a1.15 1.15 0 0 0 .33.21a.94.94 0 0 0 .76 0a.9.9 0 0 0 .54-.54a.84.84 0 0 0 .08-.38a1 1 0 0 0-1.71-.71z"
        fill="white"/>
    </g>
  </svg>
  <svg viewBox="0 0 24 24">
    <g id="src-9">
      <path
        d="M14.55 12.22a4.92 4.92 0 0 0 1.7-3.72a5 5 0 0 0-10 0A4.92 4.92 0 0 0 8 12.22a8 8 0 0 0-4.7 7.28a1 1 0 0 0 2 0a6 6 0 0 1 12 0a1 1 0 0 0 2 0a8 8 0 0 0-4.75-7.28zm-3.3-.72a3 3 0 1 1 3-3a3 3 0 0 1-3 3zm8.5-5a1 1 0 0 0-1 1v2a1 1 0 0 0 2 0v-2a1 1 0 0 0-1-1zM19 11.79a1.05 1.05 0 0 0-.29.71a1 1 0 0 0 .29.71a1.15 1.15 0 0 0 .33.21a.94.94 0 0 0 .76 0a.9.9 0 0 0 .54-.54a.84.84 0 0 0 .08-.38a1 1 0 0 0-1.71-.71z"
        fill="currentColor"/>
    </g>
  </svg>

  <svg width="24" height="24" preserveAspectRatio="xMidYMid meet" viewBox="0 0 24 24">
    <g id="guide" fill="none" stroke="currentColor" stroke-linecap="round" stroke-linejoin="round" stroke-width="2">
      <path d="M9 20H6a4 4 0 0 1-4-4V7a4 4 0 0 1 4-4h11a4 4 0 0 1 4 4v3M8 2v2m7-2v2M2 8h19m-2.5 7.643l-1.5 1.5"/>
      <circle cx="17" cy="17" r="5"/>
    </g>
  </svg>

</svg>
