<svg xmlns="http://www.w3.org/2000/svg">
  <svg viewBox="0 0 24 24">
    <g id="src-1" class="icon">
      <path d="M16 9v10H8V9h8m-1.5-6h-5l-1 1H5v2h14V4h-3.5l-1-1zM18 7H6v12c0 1.1.9 2 2 2h8c1.1 0 2-.9 2-2V7z"
            fill="crimson"/>
    </g>
  </svg>
  <svg viewBox="0 0 24 24">
    <g id="src-2" class="icon">
      <path
        d="M19.045 7.401c.378-.378.586-.88.586-1.414s-.208-1.036-.586-1.414l-1.586-1.586c-.378-.378-.88-.586-1.414-.586s-1.036.208-1.413.585L4 13.585V18h4.413L19.045 7.401zm-3-3l1.587 1.585l-1.59 1.584l-1.586-1.585l1.589-1.584zM6 16v-1.585l7.04-7.018l1.586 1.586L7.587 16H6zm-2 4h16v2H4z"
        fill=""/>
    </g>
  </svg>
  <svg viewBox="0 0 24 24">
    <g id="src-3" class="icon">
      <g fill="">
        <path
          d="M12 1.999c5.524 0 10.002 4.478 10.002 10.002c0 5.523-4.478 10.001-10.002 10.001c-5.524 0-10.002-4.478-10.002-10.001C1.998 6.477 6.476 1.999 12 1.999zm0 1.5a8.502 8.502 0 1 0 0 17.003A8.502 8.502 0 0 0 12 3.5zm-.004 7a.75.75 0 0 1 .744.648l.007.102l.003 5.502a.75.75 0 0 1-1.493.102l-.007-.101l-.003-5.502a.75.75 0 0 1 .75-.75zM12 7.003a.999.999 0 1 1 0 1.997a.999.999 0 0 1 0-1.997z"
          fill=""/>
      </g>
    </g>
  </svg>
  <svg viewBox="0 0 24 24">
    <g id="src-4" class="icon">
      <path
        d="M11.99 2C6.47 2 2 6.48 2 12s4.47 10 9.99 10C17.52 22 22 17.52 22 12S17.52 2 11.99 2zM12 20c-4.42 0-8-3.58-8-8s3.58-8 8-8s8 3.58 8 8s-3.58 8-8 8zm-.22-13h-.06c-.4 0-.72.32-.72.72v4.72c0 .35.18.68.49.86l4.15 2.49c.34.2.78.1.98-.24a.71.71 0 0 0-.25-.99l-3.87-2.3V7.72c0-.4-.32-.72-.72-.72z"
        fill=""/>
    </g>
  </svg>
  <svg viewBox="0 0 24 24">
    <g id="src-5" class="icon">
      <path
        d="M.31 2a.996.996 0 0 0 0 1.41l.69.68V16c0 1.1.9 2 2 2h7v2H9c-.55 0-1 .45-1 1s.45 1 1 1h6c.55 0 1-.45 1-1s-.45-1-1-1h-1v-2h.9l5.29 5.29a.996.996 0 1 0 1.41-1.41L1.72 2A.996.996 0 0 0 .31 2zm2.68 13V6.09L12.9 16H3.99c-.55 0-1-.45-1-1zM4.55 2l2 2H20c.55 0 1 .45 1 1v10c0 .55-.45 1-1 1h-1.45l2 2h.44c1.1 0 2-.9 2-2V4c0-1.1-.9-2-2-2H4.55z"
        fill=""/>
    </g>
  </svg>
  <svg viewBox="0 0 24 24">
    <g id="src-6" class="icon">
      <g fill="">
        <title>Activate user</title>
        <path
          d="M12 2.001c5.524 0 10 4.477 10 10s-4.476 10-10 10c-5.522 0-10-4.477-10-10s4.478-10 10-10zm0 1.5a8.5 8.5 0 1 0 0 17a8.5 8.5 0 0 0 0-17zm-4.25 7.75h8.5a.75.75 0 0 1 .102 1.492l-.102.007h-8.5a.75.75 0 0 1-.102-1.493l.102-.007h8.5h-8.5z"
          fill=""/>
      </g>
    </g>
  </svg>
  <svg viewBox="0 0 24 24">
    <g id="src-7">
      <title>Activate user</title>
      <path d="M9 16.17L4.83 12l-1.42 1.41L9 19L21 7l-1.41-1.41z" fill=""/>
    </g>
  </svg>
  <svg viewBox="0 0 24 24">
    <g id="src-8">
      <path
        d="M10.5 17.15l3.98-2.28c.67-.38.67-1.35 0-1.74l-3.98-2.28c-.67-.38-1.5.11-1.5.87v4.55c0 .77.83 1.26 1.5.88zM21 6h-7.59l2.94-2.94c.2-.2.2-.51 0-.71s-.51-.2-.71 0L12 5.99L8.36 2.35c-.2-.2-.51-.2-.71 0s-.2.51 0 .71L10.59 6H3a2 2 0 0 0-2 2v12c0 1.1.9 2 2 2h18c1.1 0 2-.9 2-2V8a2 2 0 0 0-2-2zm-1 14H4c-.55 0-1-.45-1-1V9c0-.55.45-1 1-1h16c.55 0 1 .45 1 1v10c0 .55-.45 1-1 1z"
        fill=""/>
    </g>
  </svg>
</svg>

