<svg xmlns="http://www.w3.org/2000/svg">
  <svg viewBox="0 0 24 24">
    <g id="src-1" class="icon">
      <path
        d="M3 8h18a1 1 0 0 0 0-2H3a1 1 0 0 0 0 2zm18 8H3a1 1 0 0 0 0 2h18a1 1 0 0 0 0-2zm0-5H3a1 1 0 0 0 0 2h18a1 1 0 0 0 0-2z"
        fill="white"/>
      <rect x="0" y="0" width="24" height="24" fill="rgba(0, 0, 0, 0)"/>
    </g>
  </svg>
  <svg viewBox="0 0 24 24">
    <g id="src-2" class="icon">
      <path fill-rule="evenodd"
            d="M4.75 4.5a.25.25 0 0 0-.25.25v3.5a.75.75 0 0 1-1.5 0v-3.5C3 3.784 3.784 3 4.75 3h3.5a.75.75 0 0 1 0 1.5h-3.5zM15 3.75a.75.75 0 0 1 .75-.75h3.5c.966 0 1.75.784 1.75 1.75v3.5a.75.75 0 0 1-1.5 0v-3.5a.25.25 0 0 0-.25-.25h-3.5a.75.75 0 0 1-.75-.75zM3.75 15a.75.75 0 0 1 .75.75v3.5c0 .138.112.25.25.25h3.5a.75.75 0 0 1 0 1.5h-3.5A1.75 1.75 0 0 1 3 19.25v-3.5a.75.75 0 0 1 .75-.75zm16.5 0a.75.75 0 0 1 .75.75v3.5A1.75 1.75 0 0 1 19.25 21h-3.5a.75.75 0 0 1 0-1.5h3.5a.25.25 0 0 0 .25-.25v-3.5a.75.75 0 0 1 .75-.75z"
            fill="white"/>
      <rect x="0" y="0" width="24" height="24" fill="rgba(0, 0, 0, 0)"/>
    </g>
  </svg>
  <svg viewBox="0 0 24 24">
    <g id="src-3" class="icon">
      <path
        d="M20.16 5A6.29 6.29 0 0 0 12 4.36a6.27 6.27 0 0 0-8.16 9.48l6.21 6.22a2.78 2.78 0 0 0 3.9 0l6.21-6.22a6.27 6.27 0 0 0 0-8.84zm-1.41 7.46l-6.21 6.21a.76.76 0 0 1-1.08 0l-6.21-6.24a4.29 4.29 0 0 1 0-6a4.27 4.27 0 0 1 6 0a1 1 0 0 0 1.42 0a4.27 4.27 0 0 1 6 0a4.29 4.29 0 0 1 .08 6z"
        fill="white"/>
      <rect x="0" y="0" width="24" height="24" fill="rgba(0, 0, 0, 0)"/>
    </g>
  </svg>
  <svg viewBox="0 0 24 24">
    <g id="src-4" class="icon">
      <g fill="none">
        <path
          d="M12.92 3.316c.806-.717 2.08-.145 2.08.934v15.496c0 1.078-1.274 1.65-2.08.934l-4.492-3.994a.75.75 0 0 0-.498-.19H4.25A2.25 2.25 0 0 1 2 14.247V9.75a2.25 2.25 0 0 1 2.25-2.25h3.68a.75.75 0 0 0 .498-.19l4.491-3.993zm.58 1.49L9.425 8.43A2.25 2.25 0 0 1 7.93 9H4.25a.75.75 0 0 0-.75.75v4.497c0 .415.336.75.75.75h3.68a2.25 2.25 0 0 1 1.495.57l4.075 3.623V4.807z"
          fill="white"/>
        <path
          d="M16.22 9.22a.75.75 0 0 1 1.06 0L19 10.94l1.72-1.72a.75.75 0 1 1 1.06 1.06L20.06 12l1.72 1.72a.75.75 0 1 1-1.06 1.06L19 13.06l-1.72 1.72a.75.75 0 1 1-1.06-1.06L17.94 12l-1.72-1.72a.75.75 0 0 1 0-1.06z"
          fill="white"/>
      </g>
      <rect x="0" y="0" width="24" height="24" fill="rgba(0, 0, 0, 0)"/>
    </g>
  </svg>
  <svg viewBox="0 0 24 24">
    <g id="src-5" class="icon">
      <g fill="none">
        <path
          d="M15 4.25c0-1.079-1.274-1.65-2.08-.934L8.427 7.309a.75.75 0 0 1-.498.19H4.25A2.25 2.25 0 0 0 2 9.749v4.497a2.25 2.25 0 0 0 2.25 2.25h3.68a.75.75 0 0 1 .498.19l4.491 3.994c.806.716 2.081.144 2.081-.934V4.25zM9.425 8.43L13.5 4.807v14.382l-4.075-3.624a2.25 2.25 0 0 0-1.495-.569H4.25a.75.75 0 0 1-.75-.75V9.75a.75.75 0 0 1 .75-.75h3.68a2.25 2.25 0 0 0 1.495-.569z"
          fill="white"/>
        <path
          d="M18.992 5.897a.75.75 0 0 1 1.049.157A9.959 9.959 0 0 1 22 12a9.96 9.96 0 0 1-1.96 5.946a.75.75 0 0 1-1.205-.892A8.459 8.459 0 0 0 20.5 12a8.459 8.459 0 0 0-1.665-5.054a.75.75 0 0 1 .157-1.049z"
          fill="white"/>
        <path
          d="M17.143 8.37a.75.75 0 0 1 1.017.302c.536.99.84 2.125.84 3.328a6.973 6.973 0 0 1-.84 3.328a.75.75 0 0 1-1.32-.714c.42-.777.66-1.666.66-2.614s-.24-1.837-.66-2.614a.75.75 0 0 1 .303-1.017z"
          fill="white"/>
      </g>
      <rect x="0" y="0" width="24" height="24" fill="rgba(0, 0, 0, 0)"/>
    </g>
  </svg>
  <svg viewBox="0 0 24 24">
    <g id="src-6" class="icon">
      <path
        d="M20 4a2 2 0 0 1 2 2v12a2 2 0 0 1-2 2H4a2 2 0 0 1-2-2V6a2 2 0 0 1 2-2h16m0 14V6H4v12h16M6 10h2v2H6v-2m0 4h8v2H6v-2m10 0h2v2h-2v-2m-6-4h8v2h-8v-2z"
        fill="white"/>
      <rect x="0" y="0" width="24" height="24" fill="rgba(0, 0, 0, 0)"/>
    </g>
  </svg>
  <svg viewBox="0 0 24 24">
    <g id="src-7" class="icon">
      <g fill="none">
        <path
          d="M18.75 4A3.25 3.25 0 0 1 22 7.25v9.505a3.25 3.25 0 0 1-3.25 3.25H5.25A3.25 3.25 0 0 1 2 16.755V7.25a3.25 3.25 0 0 1 3.066-3.245L5.25 4h13.5zm0 1.5H5.25l-.144.006A1.75 1.75 0 0 0 3.5 7.25v9.505c0 .966.784 1.75 1.75 1.75h13.5a1.75 1.75 0 0 0 1.75-1.75V7.25a1.75 1.75 0 0 0-1.75-1.75zM5.5 12c0-3.146 2.713-4.775 5.122-3.401A.75.75 0 0 1 9.878 9.9C8.481 9.104 7 9.994 7 12c0 2.005 1.484 2.896 2.88 2.103a.75.75 0 0 1 .74 1.304C8.216 16.775 5.5 15.143 5.5 12zm7.5 0c0-3.146 2.713-4.775 5.122-3.401a.75.75 0 0 1-.744 1.302C15.981 9.104 14.5 9.994 14.5 12c0 2.005 1.484 2.896 2.88 2.103a.75.75 0 0 1 .74 1.304C15.716 16.775 13 15.143 13 12z"
          fill="white"/>
      </g>
      <rect x="0" y="0" width="24" height="24" fill="rgba(0, 0, 0, 0)"/>
    </g>
  </svg>

</svg>
