<svg id="stream" xmlns="http://www.w3.org/2000/svg" width="24" height="24" preserveAspectRatio="xMidYMid meet"
     viewBox="0 0 24 24"
     style="-ms-transform: rotate(360deg); -webkit-transform: rotate(360deg); transform: rotate(360deg);">
  <path
    d="M21 3H3c-1.11 0-2 .89-2 2v12a2 2 0 0 0 2 2h5v2h8v-2h5c1.1 0 1.99-.9 1.99-2L23 5a2 2 0 0 0-2-2zm0 14H3V5h18v12zm-5-6l-7 4V7z"
    fill=""/>
  <rect x="0" y="0" width="24" height="24" fill="rgba(0, 0, 0, 0)"/>
</svg>


<svg xmlns="http://www.w3.org/2000/svg">
  <svg viewBox="0 0 24 24">
    <g id="src-1" class="icon">
      <path
        d="M3 8h18a1 1 0 0 0 0-2H3a1 1 0 0 0 0 2zm18 8H3a1 1 0 0 0 0 2h18a1 1 0 0 0 0-2zm0-5H3a1 1 0 0 0 0 2h18a1 1 0 0 0 0-2z"
        fill="white"/>
      <rect x="0" y="0" width="24" height="24" fill="rgba(0, 0, 0, 0)"/>
    </g>
  </svg>
  <svg viewBox="0 0 24 24">
    <g id="src-2" class="icon">
      <g fill="none">
        <path d="M10.243 16.314L6 12.07l1.414-1.414l2.829 2.828l5.656-5.657l1.415 1.415l-7.071 7.07z" fill="white"/>
        <path fill-rule="evenodd" clip-rule="evenodd"
              d="M1 12C1 5.925 5.925 1 12 1s11 4.925 11 11s-4.925 11-11 11S1 18.075 1 12zm11 9a9 9 0 1 1 0-18a9 9 0 0 1 0 18z"
              fill="white"/>
      </g>
    </g>
  </svg>
</svg>
